<svg xmlns="http://www.w3.org/2000/svg" xmlns:xlink="http://www.w3.org/1999/xlink" version="1.1" width="940" height="788" viewBox="0 0 940 788" xml:space="preserve">
<desc>Created with Fabric.js 3.5.0</desc>
<defs>
</defs>
<rect x="0" y="0" width="100%" height="100%" fill="rgba(51,51,51,0)"/>
<g transform="matrix(1.1481 0 0 1.1481 491.9839 391.8691)" id="333381">
<path style="stroke: none; stroke-width: 0; stroke-dasharray: none; stroke-linecap: butt; stroke-dashoffset: 0; stroke-linejoin: miter; stroke-miterlimit: 4; is-custom-font: none; font-file-url: none; fill: rgb(255,255,255); fill-rule: nonzero; opacity: 1;" vector-effect="non-scaling-stroke" transform=" translate(-512, -511.9795)" d="M 810.65984 170.65984 q 18.3296 0 30.49472 12.16512 t 12.16512 30.49472 q 0 18.00192 -12.32896 30.33088 l -268.67712 268.32896 l 268.67712 268.32896 q 12.32896 12.32896 12.32896 30.33088 q 0 18.3296 -12.16512 30.49472 t -30.49472 12.16512 q -18.00192 0 -30.33088 -12.32896 l -268.32896 -268.67712 l -268.32896 268.67712 q -12.32896 12.32896 -30.33088 12.32896 q -18.3296 0 -30.49472 -12.16512 t -12.16512 -30.49472 q 0 -18.00192 12.32896 -30.33088 l 268.67712 -268.32896 l -268.67712 -268.32896 q -12.32896 -12.32896 -12.32896 -30.33088 q 0 -18.3296 12.16512 -30.49472 t 30.49472 -12.16512 q 18.00192 0 30.33088 12.32896 l 268.32896 268.67712 l 268.32896 -268.67712 q 12.32896 -12.32896 30.33088 -12.32896 z" stroke-linecap="round"/>
</g>
</svg>